<?xml version="1.0" encoding="utf-8"?>
<!-- Generator: Adobe Illustrator 23.0.3, SVG Export Plug-In . SVG Version: 6.00 Build 0)  -->
<svg version="1.1" id="Capa_1" xmlns="http://www.w3.org/2000/svg" xmlns:xlink="http://www.w3.org/1999/xlink" x="0px" y="0px"
	 viewBox="0 0 77.9 72.9" style="enable-background:new 0 0 77.9 72.9;" xml:space="preserve">
<style type="text/css">
	.st0{fill:#444444;}
	.st1{fill:#69B4FF;}
	.st2{fill:#FFFFFF;}
	.st3{fill:none;stroke:#69B4FF;stroke-miterlimit:10;}
	.st4{fill:#FFFFFF;stroke:#D3D3D3;stroke-width:0.25;stroke-miterlimit:10;}
	.st5{fill:#B3B3B3;}
	.st6{fill:none;stroke:#69B4FF;stroke-width:0.5;stroke-miterlimit:10;}
	.st7{fill:none;stroke:#69B4FF;stroke-linecap:round;stroke-linejoin:round;stroke-miterlimit:10;}
</style>
<g>
	<g>
		<g transform="translate(0, 0)">
			<rect x="19.8" y="42.8" class="st0" width="1" height="18"/>
			<rect x="42.4" y="42.8" class="st0" width="1" height="18"/>
			<rect x="22.4" y="42.8" class="st0" width="1" height="18"/>
			<rect x="39.9" y="42.8" class="st0" width="1" height="18"/>
			<rect x="37.3" y="42.8" class="st0" width="1" height="18"/>
			<rect x="24.9" y="42.8" class="st0" width="3.6" height="18"/>
			<rect x="33.2" y="42.8" class="st0" width="3.1" height="18"/>
			<rect x="30.1" y="42.8" class="st0" width="1.5" height="18"/>
		</g>
		<g transform="translate(0, 0)">
			<rect x="45.4" y="42.8" class="st0" width="1" height="18"/>
			<rect x="68" y="42.8" class="st0" width="1" height="18"/>
			<rect x="47.9" y="42.8" class="st0" width="1" height="18"/>
			<rect x="65.4" y="42.8" class="st0" width="1" height="18"/>
			<rect x="62.9" y="42.8" class="st0" width="1" height="18"/>
			<rect x="50.5" y="42.8" class="st0" width="3.6" height="18"/>
			<rect x="58.8" y="42.8" class="st0" width="3.1" height="18"/>
			<rect x="55.7" y="42.8" class="st0" width="1.5" height="18"/>
		</g>
	</g>
	<path class="st1" d="M65.5,69.4H23.3c-2,0-3.6-1.6-3.6-3.6l0,0c0-2,1.6-3.6,3.6-3.6h42.2c2,0,3.6,1.6,3.6,3.6l0,0
		C69,67.8,67.5,69.4,65.5,69.4z"/>
	<g>
		<path class="st2" d="M24.2,67.6v-0.5l0.4-0.4c0.8-0.7,1.1-1.1,1.1-1.5c0-0.3-0.2-0.5-0.6-0.5c-0.3,0-0.6,0.1-0.7,0.3l-0.2-0.6
			c0.3-0.2,0.7-0.4,1.1-0.4c0.8,0,1.2,0.5,1.2,1.1s-0.4,1-0.9,1.5l-0.3,0.3l0,0h1.3v0.7H24.2z"/>
		<path class="st2" d="M28.4,66.7l-0.2,0.9h-0.8l1.1-3.6h1.1l1.1,3.6h-0.9l-0.3-0.9H28.4z M29.3,66.1l-0.2-0.8
			c-0.1-0.2-0.1-0.5-0.2-0.7l0,0c0,0.2-0.1,0.5-0.2,0.7l-0.2,0.8H29.3z"/>
		<path class="st2" d="M33.4,67c0,0.2,0,0.5,0,0.6h-0.7v-0.3l0,0c-0.2,0.2-0.4,0.3-0.7,0.3c-0.5,0-0.8-0.4-0.8-0.8
			c0-0.7,0.6-1,1.5-1l0,0c0-0.1-0.1-0.3-0.5-0.3c-0.3,0-0.5,0.1-0.7,0.2l-0.1-0.5c0.2-0.1,0.5-0.2,1-0.2c0.9,0,1.1,0.5,1.1,1.1
			L33.4,67L33.4,67z M32.6,66.4c-0.4,0-0.8,0.1-0.8,0.4c0,0.2,0.1,0.3,0.3,0.3c0.2,0,0.4-0.1,0.4-0.3v-0.1L32.6,66.4L32.6,66.4z"/>
		<path class="st2" d="M34.2,67.6v-0.5l0.4-0.4c0.8-0.7,1.1-1.1,1.1-1.5c0-0.3-0.2-0.5-0.6-0.5c-0.3,0-0.6,0.1-0.7,0.3l-0.2-0.6
			c0.3-0.2,0.7-0.4,1.1-0.4c0.8,0,1.2,0.5,1.2,1.1s-0.4,1-0.9,1.5l-0.3,0.3l0,0h1.3v0.7H34.2z"/>
		<path class="st2" d="M37.5,64.1c0.2,0,0.6-0.1,1-0.1c0.5,0,0.8,0,1.1,0.2c0.2,0.1,0.4,0.4,0.4,0.7c0,0.3-0.2,0.6-0.6,0.8l0,0
			c0.4,0.1,0.7,0.4,0.7,0.9c0,0.3-0.1,0.6-0.4,0.8c-0.3,0.2-0.7,0.3-1.4,0.3c-0.4,0-0.7,0-0.9-0.1v-3.5H37.5z M38.3,65.4h0.3
			c0.4,0,0.7-0.2,0.7-0.4c0-0.3-0.2-0.4-0.6-0.4c-0.2,0-0.3,0-0.3,0v0.8H38.3z M38.3,67c0.1,0,0.2,0,0.3,0c0.4,0,0.7-0.1,0.7-0.5
			S39,66,38.6,66h-0.3V67z"/>
		<path class="st2" d="M42.3,67.6v-0.8h-1.5v-0.5l1.3-2.1h1v2h0.4v0.6H43v0.8H42.3z M42.3,66.2v-0.8c0-0.2,0-0.4,0-0.6l0,0
			c-0.1,0.2-0.2,0.4-0.3,0.6l-0.5,0.8l0,0H42.3z"/>
		<path class="st2" d="M45.5,67.6v-0.8H44v-0.5l1.3-2.1h1v2h0.4v0.6h-0.4v0.8H45.5z M45.5,66.2v-0.8c0-0.2,0-0.4,0-0.6l0,0
			c-0.1,0.2-0.2,0.4-0.3,0.6l-0.5,0.8l0,0H45.5z"/>
		<path class="st2" d="M49.5,64.8h-1.3l-0.1,0.5c0.1,0,0.1,0,0.2,0c0.3,0,0.7,0.1,0.9,0.2c0.3,0.2,0.4,0.5,0.4,0.9
			c0,0.6-0.6,1.2-1.5,1.2c-0.4,0-0.8-0.1-1-0.2l0.1-0.6c0.1,0.1,0.5,0.2,0.8,0.2s0.7-0.2,0.7-0.5c0-0.4-0.3-0.6-1-0.6
			c-0.2,0-0.3,0-0.5,0l0.2-1.8h1.9v0.7H49.5z"/>
		<path class="st2" d="M52.6,64.7c-0.1,0-0.2,0-0.3,0c-0.7,0.1-1,0.4-1.1,0.8l0,0c0.2-0.2,0.4-0.3,0.7-0.3c0.6,0,1.1,0.4,1.1,1.1
			s-0.5,1.2-1.3,1.2c-0.9,0-1.4-0.7-1.4-1.5c0-0.6,0.2-1.2,0.6-1.5c0.3-0.3,0.8-0.5,1.3-0.5c0.1,0,0.2,0,0.3,0v0.7H52.6z M51.7,67
			c0.3,0,0.5-0.3,0.5-0.6c0-0.3-0.2-0.6-0.5-0.6c-0.2,0-0.4,0.1-0.5,0.3c0,0,0,0.1,0,0.2C51.2,66.7,51.3,67,51.7,67L51.7,67z"/>
		<path class="st2" d="M54.9,65.9v0.5h-1.4v-0.5H54.9z"/>
		<path class="st2" d="M56.8,67.6c-0.9,0-1.3-0.8-1.3-1.8s0.4-1.8,1.3-1.8c0.9,0,1.3,0.8,1.3,1.8C58.1,66.9,57.7,67.6,56.8,67.6
			L56.8,67.6z M56.8,67c0.3,0,0.5-0.4,0.5-1.2c0-0.8-0.2-1.2-0.5-1.2s-0.5,0.4-0.5,1.2S56.5,67,56.8,67L56.8,67z"/>
		<path class="st2" d="M60,67.6c-0.9,0-1.3-0.8-1.3-1.8S59.1,64,60,64c0.9,0,1.3,0.8,1.3,1.8C61.3,66.9,60.9,67.6,60,67.6L60,67.6z
			 M60,67c0.3,0,0.5-0.4,0.5-1.2c0-0.8-0.2-1.2-0.5-1.2s-0.5,0.4-0.5,1.2S59.7,67,60,67L60,67z"/>
		<path class="st2" d="M63.2,67.6c-0.9,0-1.3-0.8-1.3-1.8s0.4-1.8,1.3-1.8s1.3,0.8,1.3,1.8C64.5,66.9,64.1,67.6,63.2,67.6L63.2,67.6
			z M63.2,67c0.3,0,0.5-0.4,0.5-1.2c0-0.8-0.2-1.2-0.5-1.2s-0.5,0.4-0.5,1.2S62.9,67,63.2,67L63.2,67z"/>
	</g>
</g>
<rect x="15.9" y="39.9" class="st3" width="57.1" height="32"/>
<g transform="translate(0, 0)">
	<path class="st4" d="M43.6,34.9H16.8c-0.5,0-0.9-0.4-0.9-0.9V1.2c0-0.5,0.4-0.9,0.9-0.9h18.7l9,9V34C44.5,34.5,44.1,34.9,43.6,34.9
		z"/>
	<path class="st5" d="M35.5,0.3v7.5c0,0.8,0.7,1.5,1.5,1.5h7.5L35.5,0.3z"/>
	<path class="st5" d="M37.5,21.7h-15c-0.4,0-0.8,0.3-0.8,0.8c0,0.4,0.3,0.8,0.8,0.8h15c0.4,0,0.8-0.3,0.8-0.8
		C38.3,22.1,38,21.7,37.5,21.7z"/>
	<path class="st5" d="M37.5,14.2h-15c-0.4,0-0.8,0.3-0.8,0.8c0,0.4,0.3,0.8,0.8,0.8h15c0.4,0,0.8-0.3,0.8-0.8
		C38.3,14.6,38,14.2,37.5,14.2z"/>
	<path class="st5" d="M28.5,6.7h-6c-0.4,0-0.8,0.3-0.8,0.8s0.3,0.8,0.8,0.8h6c0.4,0,0.8-0.3,0.8-0.8S28.9,6.7,28.5,6.7z"/>
</g>
<g>
	<g>
		<g transform="translate(0, 0)">
			<rect x="23.4" y="26.8" class="st0" width="0.2" height="3.5"/>
			<rect x="27.7" y="26.8" class="st0" width="0.2" height="3.5"/>
			<rect x="23.9" y="26.8" class="st0" width="0.2" height="3.5"/>
			<rect x="27.2" y="26.8" class="st0" width="0.2" height="3.5"/>
			<rect x="26.7" y="26.8" class="st0" width="0.2" height="3.5"/>
			<rect x="24.4" y="26.8" class="st0" width="0.7" height="3.5"/>
			<rect x="25.9" y="26.8" class="st0" width="0.6" height="3.5"/>
			<rect x="25.3" y="26.8" class="st0" width="0.3" height="3.5"/>
		</g>
		<g transform="translate(0, 0)">
			<rect x="28.3" y="26.8" class="st0" width="0.2" height="3.5"/>
			<rect x="32.6" y="26.8" class="st0" width="0.2" height="3.5"/>
			<rect x="28.8" y="26.8" class="st0" width="0.2" height="3.5"/>
			<rect x="32.1" y="26.8" class="st0" width="0.2" height="3.5"/>
			<rect x="31.6" y="26.8" class="st0" width="0.2" height="3.5"/>
			<rect x="29.3" y="26.8" class="st0" width="0.7" height="3.5"/>
			<rect x="30.8" y="26.8" class="st0" width="0.6" height="3.5"/>
			<rect x="30.2" y="26.8" class="st0" width="0.3" height="3.5"/>
		</g>
	</g>
	<path class="st1" d="M32.3,31.7h-8.4c-0.3,0-0.5-0.2-0.5-0.5l0,0c0-0.3,0.2-0.5,0.5-0.5h8.4c0.3,0,0.5,0.2,0.5,0.5l0,0
		C32.8,31.5,32.6,31.7,32.3,31.7z"/>
	<g>
		<path class="st2" d="M25.5,31.5L25.5,31.5l0.1-0.1c0.1-0.1,0.2-0.2,0.2-0.3c0-0.1,0-0.1-0.1-0.1s-0.1,0-0.1,0v-0.1
			c0,0,0.1-0.1,0.2-0.1S26,30.9,26,31s-0.1,0.2-0.2,0.3l0,0l0,0h0.3v0.1h-0.6V31.5z"/>
		<path class="st2" d="M26.1,31.3L26,31.5h-0.1l0.2-0.6h0.1l0.2,0.6h-0.1l-0.1-0.2H26.1z M26.3,31.3l-0.1-0.2V31l0,0v0.1l-0.1,0.2
			H26.3z"/>
		<path class="st2" d="M26.5,31.4h0.1c0.1,0,0.1-0.1,0.1-0.1c0-0.1-0.1-0.1-0.1-0.1l0,0v-0.1l0,0c0.1,0,0.1,0,0.1-0.1
			c0,0,0-0.1-0.1-0.1h-0.1v-0.1h0.1c0.1,0,0.2,0.1,0.2,0.1c0,0.1,0,0.1-0.1,0.1l0,0c0.1,0,0.1,0.1,0.1,0.1c0,0.1-0.1,0.2-0.2,0.2
			C26.6,31.5,26.5,31.5,26.5,31.4L26.5,31.4z"/>
		<path class="st2" d="M27,31h0.1c0.1,0,0.1,0,0.2,0v0.1c0,0.1,0,0.1-0.1,0.1l0,0c0.1,0,0.1,0.1,0.1,0.1c0,0.1,0,0.1,0,0.1
			s-0.1,0.1-0.2,0.1s-0.1,0-0.1,0V31z M27,31.2L27,31.2c0.1,0,0.2,0,0.2-0.1S27.1,31,27.1,31H27V31.2z M27,31.5
			C27,31.5,27.1,31.5,27,31.5c0.1,0,0.2,0,0.2-0.1s-0.1-0.1-0.2-0.1l0,0V31.5z"/>
		<path class="st2" d="M27.6,31.5v-0.2h-0.3v-0.1l0.3-0.4h0.1v0.4h0.1v0.1h-0.1L27.6,31.5L27.6,31.5z M27.6,31.3v-0.2V31l0,0v0.1
			l-0.1,0.2l0,0H27.6z"/>
		<path class="st2" d="M28.1,31.5v-0.2h-0.3v-0.1l0.3-0.4h0.1v0.4h0.1v0.1h-0.1L28.1,31.5L28.1,31.5z M28.1,31.3v-0.2V31l0,0v0.1
			L28,31.3l0,0H28.1z"/>
		<path class="st2" d="M28.6,31h-0.2v0.1l0,0h0.1l0.1,0.1c0,0.1-0.1,0.2-0.2,0.2s-0.1,0-0.1,0v-0.1h0.1c0.1,0,0.1,0,0.1-0.1
			s0-0.1-0.2-0.1h-0.1v-0.3L28.6,31L28.6,31z"/>
		<path class="st2" d="M29,31L29,31c-0.2,0-0.2,0.1-0.3,0.2l0,0l0.1-0.1c0.1,0,0.2,0.1,0.2,0.2s-0.1,0.2-0.2,0.2s-0.2-0.1-0.2-0.2
			s0-0.2,0.1-0.3C28.9,31,28.9,31,29,31L29,31L29,31z M29,31.3c0-0.1,0-0.1-0.1-0.1c0,0-0.1,0-0.1,0.1l0,0c0,0.1,0,0.2,0.1,0.2
			S29,31.4,29,31.3z"/>
		<path class="st2" d="M29.4,31.3L29.4,31.3l-0.2,0.1v-0.1H29.4z"/>
		<path class="st2" d="M29.5,31.5v-0.6h0.1l0.2,0.3c0,0.1,0.1,0.1,0.1,0.2l0,0c0-0.1,0-0.1,0-0.2V31H30v0.6h-0.1l-0.2-0.3
			c0-0.1-0.1-0.1-0.1-0.2l0,0c0,0.1,0,0.1,0,0.2L29.5,31.5L29.5,31.5z"/>
		<path class="st2" d="M30.4,31.2c0,0.2-0.1,0.3-0.2,0.3S30,31.4,30,31.2c0-0.2,0.1-0.3,0.2-0.3C30.3,31,30.4,31.1,30.4,31.2z
			 M30.1,31.3c0,0.1,0,0.2,0.1,0.2s0.1-0.1,0.1-0.2s0-0.2-0.1-0.2C30.1,31,30.1,31.1,30.1,31.3z"/>
		<path class="st2" d="M30.8,31.2c0,0.2-0.1,0.3-0.2,0.3s-0.2-0.1-0.2-0.3c0-0.2,0.1-0.3,0.2-0.3C30.8,31,30.8,31.1,30.8,31.2z
			 M30.5,31.3c0,0.1,0,0.2,0.1,0.2s0.1-0.1,0.1-0.2s0-0.2-0.1-0.2C30.6,31,30.5,31.1,30.5,31.3z"/>
	</g>
</g>
<rect x="21.4" y="25.6" class="st6" width="13.3" height="8"/>
<polyline class="st7" points="21,31.1 4.9,31.1 4.9,66.3 12.4,66.3 "/>
<polygon class="st1" points="11.9,64.4 11.9,68.2 14.4,66.3 "/>
</svg>
